<svg width="24" height="24" viewBox="0 0 24 24" fill="none" xmlns="http://www.w3.org/2000/svg">
<path d="M16.7724 7.52199C16.9305 7.52199 17.0885 7.52863 17.2439 7.53859C16.5902 3.26639 13.0032 0 8.67418 0C3.88436 0 0 4.00332 0 8.94274C0 11.6349 1.16799 14.0614 2.99766 15.7012C3.07312 15.7673 3.13467 15.8548 3.17709 15.9565C3.21952 16.0582 3.24159 16.171 3.24143 16.2855C3.24143 16.3651 3.22804 16.4382 3.21197 16.5145C3.06463 17.1884 2.83157 18.2672 2.82085 18.317C2.8021 18.4033 2.77531 18.4896 2.77531 18.5792C2.77531 18.7751 2.9039 18.9378 3.06463 18.9378C3.12624 18.9378 3.17714 18.9079 3.23072 18.8714L5.13004 17.5137C5.27202 17.4108 5.42471 17.3477 5.5908 17.3477C5.67653 17.3477 5.76225 17.3643 5.8453 17.3942C6.732 17.7095 7.68836 17.8855 8.67686 17.8855C8.83759 17.8855 8.99565 17.8822 9.1537 17.8722C8.9635 17.1751 8.8617 16.4415 8.8617 15.6813C8.8617 11.1734 12.4032 7.52199 16.7724 7.52199ZM11.5674 4.65062C12.2049 4.65062 12.7246 5.29128 12.7246 6.08133C12.7246 6.87137 12.2076 7.51203 11.5674 7.51203C10.9298 7.51203 10.4101 6.87137 10.4101 6.08133C10.4101 5.29128 10.9298 4.65062 11.5674 4.65062ZM5.78368 7.51203C5.14611 7.51203 4.62641 6.87137 4.62641 6.08133C4.62641 5.29128 5.14343 4.65062 5.78368 4.65062C6.42393 4.65062 6.94095 5.29128 6.94095 6.08133C6.94095 6.87137 6.42125 7.51203 5.78368 7.51203ZM21.5033 21.3079C23.0276 19.9402 24 17.922 24 15.6747C24 11.5585 20.7639 8.2224 16.7697 8.2224C12.7782 8.2224 9.53946 11.5585 9.53946 15.6747C9.53946 19.7909 12.7755 23.127 16.7697 23.127C17.5948 23.127 18.3931 22.9809 19.1298 22.7187C19.1995 22.6921 19.2691 22.6788 19.3414 22.6788C19.4807 22.6788 19.6067 22.7319 19.7245 22.8149L21.3077 23.9436C21.3533 23.9768 21.3961 24 21.447 24C21.4788 24.0003 21.5103 23.9928 21.5397 23.978C21.5691 23.9632 21.5959 23.9414 21.6185 23.9137C21.6408 23.8857 21.6585 23.8525 21.6704 23.8161C21.6824 23.7796 21.6884 23.7406 21.6881 23.7012C21.6881 23.6282 21.664 23.5552 21.6506 23.4822C21.6426 23.4423 21.447 22.5427 21.3238 21.9784C21.3104 21.9153 21.2997 21.8523 21.2997 21.7892C21.3024 21.5934 21.3827 21.4174 21.5033 21.3079ZM14.3641 14.4863C13.831 14.4863 13.3997 13.9519 13.3997 13.2946C13.3997 12.6373 13.831 12.1029 14.3641 12.1029C14.8972 12.1029 15.3285 12.6373 15.3285 13.2946C15.3285 13.9519 14.8945 14.4863 14.3641 14.4863ZM19.1834 14.4863C18.6503 14.4863 18.219 13.9519 18.219 13.2946C18.219 12.6373 18.6503 12.1029 19.1834 12.1029C19.7165 12.1029 20.1478 12.6373 20.1478 13.2946C20.1465 13.6107 20.0444 13.9135 19.8638 14.1367C19.6831 14.3599 19.4385 14.4856 19.1834 14.4863Z" fill="#9B9A9A" fill-opacity="0.6"/>
</svg>
