<svg width="24" height="24" viewBox="0 0 24 24" fill="none" xmlns="http://www.w3.org/2000/svg">
<g clip-path="url(#clip0_203_1560)">
<path d="M23.6384 11.8125L12.6054 0.787471C12.5259 0.707875 12.4316 0.644727 12.3277 0.601641C12.2238 0.558555 12.1125 0.536377 12 0.536377C11.8875 0.536377 11.7762 0.558555 11.6723 0.601641C11.5684 0.644727 11.4741 0.707875 11.3946 0.787471L0.361604 11.8125C0.0401751 12.1339 -0.141968 12.5705 -0.141968 13.0259C-0.141968 13.9714 0.626782 14.7401 1.57232 14.7401H2.73482V22.6071C2.73482 23.0812 3.11785 23.4643 3.59196 23.4643H10.2857V17.4643H13.2857V23.4643H20.408C20.8821 23.4643 21.2652 23.0812 21.2652 22.6071V14.7401H22.4277C22.883 14.7401 23.3196 14.5607 23.6411 14.2366C24.308 13.5669 24.308 12.4821 23.6384 11.8125Z" fill="#9B9A9A" fill-opacity="0.6"/>
</g>
<defs>
<clipPath id="clip0_203_1560">
<rect width="24" height="24" fill="white"/>
</clipPath>
</defs>
</svg>
