<svg width="162" height="135" viewBox="0 0 162 135" fill="none" xmlns="http://www.w3.org/2000/svg">
<defs>
<linearGradient id="paint0_linear_42_111" x1="101.752" y1="-52" x2="101.752" y2="135" gradientUnits="userSpaceOnUse">
<stop stop-color="#9D2BAF"/>
<stop offset="1" stop-color="#F0EAFF"/>
</linearGradient>
<linearGradient id="paint1_linear_42_111" x1="150.523" y1="-76" x2="150.523" y2="116.529" gradientUnits="userSpaceOnUse">
<stop stop-color="#FA00FF"/>
<stop offset="1" stop-color="#634AC7"/>
</linearGradient>
</defs>
<path d="M68.5048 -38C31.5048 -26.6667 -30.4952 1 17.5048 21C77.5048 46 -23.4952 74 68.5048 99C142.105 119 181.838 131.333 192.505 135L203.505 -52L89.5048 -40.1778L68.5048 -38Z" fill="url(#paint0_linear_42_111)"/>
<path d="M37.7663 -1.34482C-11.0337 -34.1448 46.7663 -64.3448 81.7663 -75.3448C103.766 -78.0115 165.966 -73.9448 238.766 -36.3448C329.766 10.6552 269.766 83.6552 128.766 111.655C-12.2337 139.655 98.7663 39.6552 37.7663 -1.34482Z" fill="url(#paint1_linear_42_111)"/>
</svg>
