<svg width="25" height="24" viewBox="0 0 25 24" fill="none" xmlns="http://www.w3.org/2000/svg">
<path fill-rule="evenodd" clip-rule="evenodd" d="M22.0437 24C20.7212 24 4.81388 23.7128 3.11877 23.6773C1.18759 23.6322 0.359945 22.3867 0.519217 20.3926C0.570412 19.7472 0.763815 17.0852 0.974282 14.1683L10.6444 14.0651L10.8691 15.73L14.6177 15.3235L14.649 14.0328L24.1683 13.9295C24.3191 17.0368 24.4527 20.0118 24.4954 20.8314C24.5722 22.9707 23.6848 24 22.0437 24ZM14.7058 11.245L10.3088 11.6547L10.4169 12.4614L1.07383 12.7841C1.34402 9.00887 1.60853 5.27238 1.60853 5.27238L23.7417 5.59505C23.7417 5.59505 23.8953 8.62167 24.0602 11.9806L14.6746 12.3033L14.7058 11.245ZM16.9527 3.12987L8.22971 2.80075L7.8685 4.00753L5.8776 3.95913C5.8776 3.95913 6.06247 2.90078 6.23027 2.18446C6.55166 0.790534 6.99819 0 8.45724 0C9.15121 0 15.1495 0.322667 16.017 0.322667C17.587 0.322667 18.662 1.01317 18.8611 2.19414C18.9692 2.82011 19.2167 4.2947 19.2167 4.2947L17.3082 4.24953L16.9527 3.12987Z" fill="#9B9A9A" fill-opacity="0.6"/>
</svg>
