<svg width="24" height="24" viewBox="0 0 24 24" fill="none" xmlns="http://www.w3.org/2000/svg">
<path fill-rule="evenodd" clip-rule="evenodd" d="M21.5437 24C20.2212 24 4.31388 23.7128 2.61877 23.6773C0.687592 23.6322 -0.140055 22.3867 0.0192171 20.3926C0.0704118 19.7472 0.263815 17.0852 0.474282 14.1683L10.1444 14.0651L10.3691 15.73L14.1177 15.3235L14.149 14.0328L23.6683 13.9295C23.8191 17.0368 23.9527 20.0118 23.9954 20.8314C24.0722 22.9707 23.1848 24 21.5437 24ZM14.2058 11.245L9.80878 11.6547L9.91686 12.4614L0.573827 12.7841C0.844021 9.00887 1.10853 5.27238 1.10853 5.27238L23.2417 5.59505C23.2417 5.59505 23.3953 8.62167 23.5602 11.9806L14.1746 12.3033L14.2058 11.245ZM16.4527 3.12987L7.72971 2.80075L7.3685 4.00753L5.3776 3.95913C5.3776 3.95913 5.56247 2.90078 5.73027 2.18446C6.05166 0.790534 6.49819 0 7.95724 0C8.65121 0 14.6495 0.322667 15.517 0.322667C17.087 0.322667 18.162 1.01317 18.3611 2.19414C18.4692 2.82011 18.7167 4.2947 18.7167 4.2947L16.8082 4.24953L16.4527 3.12987Z" fill="#492497"/>
</svg>
